<svg xmlns="http://www.w3.org/2000/svg" xmlns:xlink="http://www.w3.org/1999/xlink" version="1.1" x="0px" y="0px" viewBox="0 0 100 115" style="enable-background:new 0 0 100 100;" xml:space="preserve">
  <g>
    <path d="M92.8,87.7L68.2,63c4.7-6,7.6-13.5,7.6-21.7c0-19.3-15.7-34.9-34.9-34.9S5.9,22.1,5.9,41.3s15.7,34.9,34.9,34.9   c8.2,0,15.7-2.8,21.7-7.6l24.7,24.7c0.8,0.8,1.8,1.2,2.8,1.2s2-0.4,2.8-1.2C94.4,91.8,94.4,89.2,92.8,87.7z M13.9,41.3   c0-14.9,12.1-26.9,26.9-26.9s26.9,12.1,26.9,26.9S55.7,68.3,40.8,68.3S13.9,56.2,13.9,41.3z"/>
    <path d="M40.8,19.9c-11.8,0-21.4,9.6-21.4,21.4c0,2.2,1.8,4,4,4s4-1.8,4-4c0-7.4,6-13.4,13.4-13.4c2.2,0,4-1.8,4-4   S43,19.9,40.8,19.9z"/>
  </g>
</svg>
