<svg xmlns="http://www.w3.org/2000/svg" xmlns:xlink="http://www.w3.org/1999/xlink" version="1.1" x="0px" y="0px" viewBox="0 0 100 115" enable-background="new 0 0 100 100" xml:space="preserve">
  <path d="M87.79,17.496c-4.51-4.233-10.398-6.564-16.583-6.564c-6.665,0-13.104,2.784-17.668,7.64l-3.536,3.767l-3.54-3.769  c-4.562-4.854-11.001-7.638-17.667-7.638c-6.184,0-12.074,2.331-16.587,6.565c-9.736,9.152-10.216,24.52-1.069,34.258  c0.026,0.027,0.052,0.055,0.079,0.082l36.295,36.209c0.683,0.682,1.578,1.022,2.472,1.022c0.894,0,1.788-0.341,2.471-1.021  l36.32-36.21c0.027-0.027,0.054-0.055,0.079-0.082C98.005,42.022,97.527,26.655,87.79,17.496z"/>
</svg>
